# xmcd
#
# Track frame offsets: 
#        150
#        20772
#        38202
#        51327
#        66530
#        82350
#        96492
#        113410
#        124872
#        136697
#        152302
#        171035
#        187845
#        205550
#        224605
#        237172
#        252202
#        265687
#        283677
#        297445
#        314725
#        329842
#
# Disc length: 4591 seconds
#
# Revision: 0
# Processed by: cddbd v1.5.1PL0 Copyright (c) Steve Scherf et al.
# Submitted via: ExactAudioCopy v0.95a3
#
DISCID=5211ed16
DTITLE=Various Artist - This Is Pop Country Disc 2
DYEAR=2004
DGENRE=Country
TTITLE0=Ain't Misbehavin' - Hank Williams Jr.
TTITLE1=Too Much Is Not Enough - Bellamy Brothers and Forester Sisters
TTITLE2=There's No Stopping Your Heart - Marie Osmond
TTITLE3=Have Mercy - Judds
TTITLE4=I Don't Mind The Thorns - Lee Greenwood
TTITLE5=He's Back And I'm Blue - Desert Rose Band
TTITLE6=Lookin' For Love - Johnny Lee
TTITLE7=Are You On The Road To Lovin' Me Again - Debby Boone
TTITLE8=Dixie On My Mind - Hank Williams Jr.
TTITLE9=Kids Of The Babyboom - Bellamy Brothers
TTITLE10=Mornin' Ride - Lee Greenwood
TTITLE11=Cry Myself To Sleep - Judds
TTITLE12=Meet Me In Montana - Marie Osmond and Dan Seals
TTITLE13=I Still Believe In You - Desert Rose Band
TTITLE14=Step That Step - Sawyer Brown
TTITLE15=Dancin' Cowbpys - Bellamy Brothers
TTITLE16=Let Me Tell You About Love - Judds
TTITLE17=All My Rowdy Friends - Hank Williams Jr.
TTITLE18=Dixie Road - Lee Greenwood
TTITLE19=When I'm Away From You - Bellamy Brothers
TTITLE20=You're Still New To Me - Marie Osmond and Paul Davis
TTITLE21=Mama He's Crazy - Judds
EXTD=
EXTT0=
EXTT1=
EXTT2=
EXTT3=
EXTT4=
EXTT5=
EXTT6=
EXTT7=
EXTT8=
EXTT9=
EXTT10=
EXTT11=
EXTT12=
EXTT13=
EXTT14=
EXTT15=
EXTT16=
EXTT17=
EXTT18=
EXTT19=
EXTT20=
EXTT21=
PLAYORDER=
